{
    "asset" : {
        "generator" : "Khronos glTF Blender I/O v1.6.16",
        "version" : "2.0"
    },
    "scene" : 0,
    "scenes" : [
        {
            "name" : "Scene",
            "nodes" : [
                0,
                1,
                2
            ]
        }
    ],
    "nodes" : [
        {
            "name" : "Light",
            "rotation" : [
                0.16907575726509094,
                0.7558803558349609,
                -0.27217137813568115,
                0.570947527885437
            ],
            "translation" : [
                -7.931877136230469,
                5.903861999511719,
                -0.942851185798645
            ]
        },
        {
            "name" : "Camera",
            "rotation" : [
                -0.28802311420440674,
                -0.46632033586502075,
                0.16621853411197662,
                -0.8197312951087952
            ],
            "translation" : [
                0.7673372030258179,
                1.1826822757720947,
                0.453175812959671
            ]
        },
        {
            "mesh" : 0,
            "name" : "poleva",
            "scale" : [
                3.19159197807312,
                3.19159197807312,
                3.19159197807312
            ],
            "translation" : [
                0,
                5.348919785319595e-06,
                0
            ]
        }
    ],
    "materials" : [
        {
            "doubleSided" : true,
            "name" : "Material.001",
            "pbrMetallicRoughness" : {
                "baseColorFactor" : [
                    0.5796935558319092,
                    0.1560162752866745,
                    0.8000000715255737,
                    1
                ],
                "metallicFactor" : 0.1764705926179886,
                "roughnessFactor" : 0.5
            }
        },
        {
            "doubleSided" : true,
            "name" : "Material.002",
            "pbrMetallicRoughness" : {
                "baseColorFactor" : [
                    0.8000000715255737,
                    0.4960094690322876,
                    0.1386004239320755,
                    1
                ],
                "metallicFactor" : 0,
                "roughnessFactor" : 0.5
            }
        }
    ],
    "meshes" : [
        {
            "name" : "Torus.002",
            "primitives" : [
                {
                    "attributes" : {
                        "POSITION" : 0,
                        "NORMAL" : 1,
                        "TEXCOORD_0" : 2
                    },
                    "indices" : 3,
                    "material" : 0
                },
                {
                    "attributes" : {
                        "POSITION" : 4,
                        "NORMAL" : 5,
                        "TEXCOORD_0" : 6
                    },
                    "indices" : 7,
                    "material" : 1
                }
            ]
        }
    ],
    "accessors" : [
        {
            "bufferView" : 0,
            "componentType" : 5126,
            "count" : 145,
            "max" : [
                0.0708390474319458,
                0.06052307412028313,
                0.0702887549996376
            ],
            "min" : [
                -0.07641526311635971,
                0.04179826378822327,
                -0.07650670409202576
            ],
            "type" : "VEC3"
        },
        {
            "bufferView" : 1,
            "componentType" : 5126,
            "count" : 145,
            "type" : "VEC3"
        },
        {
            "bufferView" : 2,
            "componentType" : 5126,
            "count" : 145,
            "type" : "VEC2"
        },
        {
            "bufferView" : 3,
            "componentType" : 5123,
            "count" : 672,
            "type" : "SCALAR"
        },
        {
            "bufferView" : 4,
            "componentType" : 5126,
            "count" : 377,
            "max" : [
                0.07506163418292999,
                0.06052139773964882,
                0.0739520788192749
            ],
            "min" : [
                -0.07882719486951828,
                0.01204776018857956,
                -0.07843208312988281
            ],
            "type" : "VEC3"
        },
        {
            "bufferView" : 5,
            "componentType" : 5126,
            "count" : 377,
            "type" : "VEC3"
        },
        {
            "bufferView" : 6,
            "componentType" : 5126,
            "count" : 377,
            "type" : "VEC2"
        },
        {
            "bufferView" : 7,
            "componentType" : 5123,
            "count" : 2016,
            "type" : "SCALAR"
        }
    ],
    "bufferViews" : [
        {
            "buffer" : 0,
            "byteLength" : 1740,
            "byteOffset" : 0
        },
        {
            "buffer" : 0,
            "byteLength" : 1740,
            "byteOffset" : 1740
        },
        {
            "buffer" : 0,
            "byteLength" : 1160,
            "byteOffset" : 3480
        },
        {
            "buffer" : 0,
            "byteLength" : 1344,
            "byteOffset" : 4640
        },
        {
            "buffer" : 0,
            "byteLength" : 4524,
            "byteOffset" : 5984
        },
        {
            "buffer" : 0,
            "byteLength" : 4524,
            "byteOffset" : 10508
        },
        {
            "buffer" : 0,
            "byteLength" : 3016,
            "byteOffset" : 15032
        },
        {
            "buffer" : 0,
            "byteLength" : 4032,
            "byteOffset" : 18048
        }
    ],
    "buffers" : [
        {
            "byteLength" : 22080,
            "uri" : "data:application/octet-stream;base64,"
        }
    ]
}
